ISO-10303-21;
HEADER;
FILE_DESCRIPTION(('sample_plate'),'2;1');
FILE_NAME('sample_plate.step','2024-01-01T00:00:00',('toolpath-lab'),('toolpath-lab'),'toolpath-lab 0.0.1','toolpath-lab','');
FILE_SCHEMA(('AUTOMOTIVE_DESIGN { 1 0 10303 214 3 1 1 }'));
ENDSEC;
DATA;
#1=CARTESIAN_POINT('',(-60.0,-45.0,40.0));
#2=DIRECTION('',(0.0,0.0,1.0));
#3=DIRECTION('',(1.0,0.0,0.0));
#4=AXIS2_PLACEMENT_3D('',#1,#2,#3);
#5=PLANE('',#4);
#6=DIRECTION('',(120.0,0.0,0.0));
#7=VECTOR('',#6,1.0);
#8=LINE('',#1,#7);
#9=CARTESIAN_POINT('',(60.0,-45.0,40.0));
#10=EDGE_CURVE('',#1,#9,#8,.T.);
#11=ORIENTED_EDGE('','*','*',#10,.T.);
#12=DIRECTION('',(0.0,90.0,0.0));
#13=VECTOR('',#12,1.0);
#14=LINE('',#9,#13);
#15=CARTESIAN_POINT('',(60.0,45.0,40.0));
#16=EDGE_CURVE('',#9,#15,#14,.T.);
#17=ORIENTED_EDGE('','*','*',#16,.T.);
#18=DIRECTION('',(-120.0,0.0,0.0));
#19=VECTOR('',#18,1.0);
#20=LINE('',#15,#19);
#21=CARTESIAN_POINT('',(-60.0,45.0,40.0));
#22=EDGE_CURVE('',#15,#21,#20,.T.);
#23=ORIENTED_EDGE('','*','*',#22,.T.);
#24=DIRECTION('',(0.0,-90.0,0.0));
#25=VECTOR('',#24,1.0);
#26=LINE('',#21,#25);
#27=EDGE_CURVE('',#21,#1,#26,.T.);
#28=ORIENTED_EDGE('','*','*',#27,.T.);
#29=EDGE_LOOP('',(#11,#17,#23,#28));
#30=CARTESIAN_POINT('',(-35.0,22.5,40.0));
#31=DIRECTION('',(70.0,0.0,0.0));
#32=VECTOR('',#31,1.0);
#33=LINE('',#30,#32);
#34=CARTESIAN_POINT('',(35.0,22.5,40.0));
#35=EDGE_CURVE('',#30,#34,#33,.T.);
#36=ORIENTED_EDGE('','*','*',#35,.T.);
#37=DIRECTION('',(0.0,-45.0,0.0));
#38=VECTOR('',#37,1.0);
#39=LINE('',#34,#38);
#40=CARTESIAN_POINT('',(35.0,-22.5,40.0));
#41=EDGE_CURVE('',#34,#40,#39,.T.);
#42=ORIENTED_EDGE('','*','*',#41,.T.);
#43=DIRECTION('',(-70.0,0.0,0.0));
#44=VECTOR('',#43,1.0);
#45=LINE('',#40,#44);
#46=CARTESIAN_POINT('',(-35.0,-22.5,40.0));
#47=EDGE_CURVE('',#40,#46,#45,.T.);
#48=ORIENTED_EDGE('','*','*',#47,.T.);
#49=DIRECTION('',(0.0,45.0,0.0));
#50=VECTOR('',#49,1.0);
#51=LINE('',#46,#50);
#52=EDGE_CURVE('',#46,#30,#51,.T.);
#53=ORIENTED_EDGE('','*','*',#52,.T.);
#54=EDGE_LOOP('',(#36,#42,#48,#53));
#55=FACE_OUTER_BOUND('',#29,.T.);
#56=FACE_OUTER_BOUND('',#54,.T.);
#57=ADVANCED_FACE('',(#55,#56),#5,.T.);
#58=CARTESIAN_POINT('',(-60.0,45.0,0.0));
#59=DIRECTION('',(0.0,0.0,-1.0));
#60=AXIS2_PLACEMENT_3D('',#58,#59,#3);
#61=PLANE('',#60);
#62=VECTOR('',#6,1.0);
#63=LINE('',#58,#62);
#64=CARTESIAN_POINT('',(60.0,45.0,0.0));
#65=EDGE_CURVE('',#58,#64,#63,.T.);
#66=ORIENTED_EDGE('','*','*',#65,.T.);
#67=VECTOR('',#24,1.0);
#68=LINE('',#64,#67);
#69=CARTESIAN_POINT('',(60.0,-45.0,0.0));
#70=EDGE_CURVE('',#64,#69,#68,.T.);
#71=ORIENTED_EDGE('','*','*',#70,.T.);
#72=VECTOR('',#18,1.0);
#73=LINE('',#69,#72);
#74=CARTESIAN_POINT('',(-60.0,-45.0,0.0));
#75=EDGE_CURVE('',#69,#74,#73,.T.);
#76=ORIENTED_EDGE('','*','*',#75,.T.);
#77=VECTOR('',#12,1.0);
#78=LINE('',#74,#77);
#79=EDGE_CURVE('',#74,#58,#78,.T.);
#80=ORIENTED_EDGE('','*','*',#79,.T.);
#81=EDGE_LOOP('',(#66,#71,#76,#80));
#82=FACE_OUTER_BOUND('',#81,.T.);
#83=ADVANCED_FACE('',(#82),#61,.T.);
#84=DIRECTION('',(0.0,-1.0,0.0));
#85=AXIS2_PLACEMENT_3D('',#74,#84,#2);
#86=PLANE('',#85);
#87=VECTOR('',#6,1.0);
#88=LINE('',#74,#87);
#89=EDGE_CURVE('',#74,#69,#88,.T.);
#90=ORIENTED_EDGE('','*','*',#89,.T.);
#91=DIRECTION('',(0.0,0.0,40.0));
#92=VECTOR('',#91,1.0);
#93=LINE('',#69,#92);
#94=EDGE_CURVE('',#69,#9,#93,.T.);
#95=ORIENTED_EDGE('','*','*',#94,.T.);
#96=VECTOR('',#18,1.0);
#97=LINE('',#9,#96);
#98=EDGE_CURVE('',#9,#1,#97,.T.);
#99=ORIENTED_EDGE('','*','*',#98,.T.);
#100=DIRECTION('',(0.0,0.0,-40.0));
#101=VECTOR('',#100,1.0);
#102=LINE('',#1,#101);
#103=EDGE_CURVE('',#1,#74,#102,.T.);
#104=ORIENTED_EDGE('','*','*',#103,.T.);
#105=EDGE_LOOP('',(#90,#95,#99,#104));
#106=FACE_OUTER_BOUND('',#105,.T.);
#107=ADVANCED_FACE('',(#106),#86,.T.);
#108=DIRECTION('',(0.0,1.0,0.0));
#109=AXIS2_PLACEMENT_3D('',#21,#108,#2);
#110=PLANE('',#109);
#111=VECTOR('',#6,1.0);
#112=LINE('',#21,#111);
#113=EDGE_CURVE('',#21,#15,#112,.T.);
#114=ORIENTED_EDGE('','*','*',#113,.T.);
#115=VECTOR('',#100,1.0);
#116=LINE('',#15,#115);
#117=EDGE_CURVE('',#15,#64,#116,.T.);
#118=ORIENTED_EDGE('','*','*',#117,.T.);
#119=VECTOR('',#18,1.0);
#120=LINE('',#64,#119);
#121=EDGE_CURVE('',#64,#58,#120,.T.);
#122=ORIENTED_EDGE('','*','*',#121,.T.);
#123=VECTOR('',#91,1.0);
#124=LINE('',#58,#123);
#125=EDGE_CURVE('',#58,#21,#124,.T.);
#126=ORIENTED_EDGE('','*','*',#125,.T.);
#127=EDGE_LOOP('',(#114,#118,#122,#126));
#128=FACE_OUTER_BOUND('',#127,.T.);
#129=ADVANCED_FACE('',(#128),#110,.T.);
#130=DIRECTION('',(-1.0,0.0,0.0));
#131=AXIS2_PLACEMENT_3D('',#1,#130,#2);
#132=PLANE('',#131);
#133=VECTOR('',#12,1.0);
#134=LINE('',#1,#133);
#135=EDGE_CURVE('',#1,#21,#134,.T.);
#136=ORIENTED_EDGE('','*','*',#135,.T.);
#137=VECTOR('',#100,1.0);
#138=LINE('',#21,#137);
#139=EDGE_CURVE('',#21,#58,#138,.T.);
#140=ORIENTED_EDGE('','*','*',#139,.T.);
#141=VECTOR('',#24,1.0);
#142=LINE('',#58,#141);
#143=EDGE_CURVE('',#58,#74,#142,.T.);
#144=ORIENTED_EDGE('','*','*',#143,.T.);
#145=VECTOR('',#91,1.0);
#146=LINE('',#74,#145);
#147=EDGE_CURVE('',#74,#1,#146,.T.);
#148=ORIENTED_EDGE('','*','*',#147,.T.);
#149=EDGE_LOOP('',(#136,#140,#144,#148));
#150=FACE_OUTER_BOUND('',#149,.T.);
#151=ADVANCED_FACE('',(#150),#132,.T.);
#152=AXIS2_PLACEMENT_3D('',#69,#3,#2);
#153=PLANE('',#152);
#154=VECTOR('',#12,1.0);
#155=LINE('',#69,#154);
#156=EDGE_CURVE('',#69,#64,#155,.T.);
#157=ORIENTED_EDGE('','*','*',#156,.T.);
#158=VECTOR('',#91,1.0);
#159=LINE('',#64,#158);
#160=EDGE_CURVE('',#64,#15,#159,.T.);
#161=ORIENTED_EDGE('','*','*',#160,.T.);
#162=VECTOR('',#24,1.0);
#163=LINE('',#15,#162);
#164=EDGE_CURVE('',#15,#9,#163,.T.);
#165=ORIENTED_EDGE('','*','*',#164,.T.);
#166=VECTOR('',#100,1.0);
#167=LINE('',#9,#166);
#168=EDGE_CURVE('',#9,#69,#167,.T.);
#169=ORIENTED_EDGE('','*','*',#168,.T.);
#170=EDGE_LOOP('',(#157,#161,#165,#169));
#171=FACE_OUTER_BOUND('',#170,.T.);
#172=ADVANCED_FACE('',(#171),#153,.T.);
#173=CARTESIAN_POINT('',(-35.0,-22.5,25.0));
#174=AXIS2_PLACEMENT_3D('',#173,#2,#3);
#175=PLANE('',#174);
#176=VECTOR('',#31,1.0);
#177=LINE('',#173,#176);
#178=CARTESIAN_POINT('',(35.0,-22.5,25.0));
#179=EDGE_CURVE('',#173,#178,#177,.T.);
#180=ORIENTED_EDGE('','*','*',#179,.T.);
#181=VECTOR('',#49,1.0);
#182=LINE('',#178,#181);
#183=CARTESIAN_POINT('',(35.0,22.5,25.0));
#184=EDGE_CURVE('',#178,#183,#182,.T.);
#185=ORIENTED_EDGE('','*','*',#184,.T.);
#186=VECTOR('',#43,1.0);
#187=LINE('',#183,#186);
#188=CARTESIAN_POINT('',(-35.0,22.5,25.0));
#189=EDGE_CURVE('',#183,#188,#187,.T.);
#190=ORIENTED_EDGE('','*','*',#189,.T.);
#191=VECTOR('',#37,1.0);
#192=LINE('',#188,#191);
#193=EDGE_CURVE('',#188,#173,#192,.T.);
#194=ORIENTED_EDGE('','*','*',#193,.T.);
#195=EDGE_LOOP('',(#180,#185,#190,#194));
#196=FACE_OUTER_BOUND('',#195,.T.);
#197=ADVANCED_FACE('',(#196),#175,.T.);
#198=AXIS2_PLACEMENT_3D('',#173,#108,#2);
#199=PLANE('',#198);
#200=VECTOR('',#31,1.0);
#201=LINE('',#173,#200);
#202=EDGE_CURVE('',#173,#178,#201,.T.);
#203=ORIENTED_EDGE('','*','*',#202,.T.);
#204=DIRECTION('',(0.0,0.0,-25.0));
#205=VECTOR('',#204,1.0);
#206=LINE('',#178,#205);
#207=CARTESIAN_POINT('',(35.0,-22.5,0.0));
#208=EDGE_CURVE('',#178,#207,#206,.T.);
#209=ORIENTED_EDGE('','*','*',#208,.T.);
#210=VECTOR('',#43,1.0);
#211=LINE('',#207,#210);
#212=CARTESIAN_POINT('',(-35.0,-22.5,0.0));
#213=EDGE_CURVE('',#207,#212,#211,.T.);
#214=ORIENTED_EDGE('','*','*',#213,.T.);
#215=DIRECTION('',(0.0,0.0,25.0));
#216=VECTOR('',#215,1.0);
#217=LINE('',#212,#216);
#218=EDGE_CURVE('',#212,#173,#217,.T.);
#219=ORIENTED_EDGE('','*','*',#218,.T.);
#220=EDGE_LOOP('',(#203,#209,#214,#219));
#221=FACE_OUTER_BOUND('',#220,.T.);
#222=ADVANCED_FACE('',(#221),#199,.T.);
#223=CARTESIAN_POINT('',(-35.0,22.5,0.0));
#224=AXIS2_PLACEMENT_3D('',#223,#84,#2);
#225=PLANE('',#224);
#226=VECTOR('',#31,1.0);
#227=LINE('',#223,#226);
#228=CARTESIAN_POINT('',(35.0,22.5,0.0));
#229=EDGE_CURVE('',#223,#228,#227,.T.);
#230=ORIENTED_EDGE('','*','*',#229,.T.);
#231=VECTOR('',#215,1.0);
#232=LINE('',#228,#231);
#233=EDGE_CURVE('',#228,#183,#232,.T.);
#234=ORIENTED_EDGE('','*','*',#233,.T.);
#235=VECTOR('',#43,1.0);
#236=LINE('',#183,#235);
#237=EDGE_CURVE('',#183,#188,#236,.T.);
#238=ORIENTED_EDGE('','*','*',#237,.T.);
#239=VECTOR('',#204,1.0);
#240=LINE('',#188,#239);
#241=EDGE_CURVE('',#188,#223,#240,.T.);
#242=ORIENTED_EDGE('','*','*',#241,.T.);
#243=EDGE_LOOP('',(#230,#234,#238,#242));
#244=FACE_OUTER_BOUND('',#243,.T.);
#245=ADVANCED_FACE('',(#244),#225,.T.);
#246=AXIS2_PLACEMENT_3D('',#212,#3,#2);
#247=PLANE('',#246);
#248=VECTOR('',#49,1.0);
#249=LINE('',#212,#248);
#250=EDGE_CURVE('',#212,#223,#249,.T.);
#251=ORIENTED_EDGE('','*','*',#250,.T.);
#252=VECTOR('',#215,1.0);
#253=LINE('',#223,#252);
#254=EDGE_CURVE('',#223,#188,#253,.T.);
#255=ORIENTED_EDGE('','*','*',#254,.T.);
#256=VECTOR('',#37,1.0);
#257=LINE('',#188,#256);
#258=EDGE_CURVE('',#188,#173,#257,.T.);
#259=ORIENTED_EDGE('','*','*',#258,.T.);
#260=VECTOR('',#204,1.0);
#261=LINE('',#173,#260);
#262=EDGE_CURVE('',#173,#212,#261,.T.);
#263=ORIENTED_EDGE('','*','*',#262,.T.);
#264=EDGE_LOOP('',(#251,#255,#259,#263));
#265=FACE_OUTER_BOUND('',#264,.T.);
#266=ADVANCED_FACE('',(#265),#247,.T.);
#267=AXIS2_PLACEMENT_3D('',#178,#130,#2);
#268=PLANE('',#267);
#269=VECTOR('',#49,1.0);
#270=LINE('',#178,#269);
#271=EDGE_CURVE('',#178,#183,#270,.T.);
#272=ORIENTED_EDGE('','*','*',#271,.T.);
#273=VECTOR('',#204,1.0);
#274=LINE('',#183,#273);
#275=EDGE_CURVE('',#183,#228,#274,.T.);
#276=ORIENTED_EDGE('','*','*',#275,.T.);
#277=VECTOR('',#37,1.0);
#278=LINE('',#228,#277);
#279=EDGE_CURVE('',#228,#207,#278,.T.);
#280=ORIENTED_EDGE('','*','*',#279,.T.);
#281=VECTOR('',#215,1.0);
#282=LINE('',#207,#281);
#283=EDGE_CURVE('',#207,#178,#282,.T.);
#284=ORIENTED_EDGE('','*','*',#283,.T.);
#285=EDGE_LOOP('',(#272,#276,#280,#284));
#286=FACE_OUTER_BOUND('',#285,.T.);
#287=ADVANCED_FACE('',(#286),#268,.T.);
#288=CLOSED_SHELL('',(#57,#83,#107,#129,#151,#172,#197,#222,#245,#266,#287));
#289=MANIFOLD_SOLID_BREP('sample_plate',#288);
ENDSEC;
END-ISO-10303-21;
